<svg width="68" height="68" viewBox="0 0 68 68" fill="none" xmlns="http://www.w3.org/2000/svg">
<path d="M33.8524 0.256065C33.5993 0.486521 33.417 0.566679 33.1437 0.566679C32.8906 0.566679 32.7084 0.636818 32.5869 0.767075C32.3439 1.04763 32.3743 1.15785 32.7489 1.59872C33.0627 1.95943 33.1032 1.96945 34.0548 2.08969C35.0267 2.20993 35.047 2.20993 35.2899 1.97947C35.5025 1.77908 35.6341 1.74902 36.4137 1.75904C36.8996 1.75904 37.507 1.79912 37.7703 1.85923C39.5419 2.26003 40.1392 2.42034 40.4328 2.6007C40.7163 2.77104 40.7365 2.81112 40.5847 2.86122C40.362 2.94137 39.5014 2.93135 37.7196 2.82114C35.4722 2.69088 34.5509 2.69088 32.9716 2.83116C31.4733 2.97143 31.291 3.01151 29.4586 3.69286C29.2359 3.77302 29.1853 3.84316 29.2359 4.01349C29.2966 4.26399 29.3878 4.21389 26.8872 5.22589C25.5002 5.787 24.4878 6.28799 23.7083 6.77896C23.4552 6.9493 23.1819 7.10962 23.1009 7.14969C22.8782 7.24989 21.2887 8.36209 20.7724 8.78292C20.5193 8.98332 20.246 9.1737 20.165 9.20376C19.8511 9.31397 18.7375 10.2158 18.3731 10.6566C18.1605 10.9071 17.8669 11.2578 17.715 11.4382C17.553 11.6185 17.4316 11.8289 17.4316 11.9091C17.4316 11.9893 17.2493 12.2297 17.0266 12.4402C16.6824 12.7708 16.6014 12.8109 16.5204 12.6906C16.4698 12.6105 16.4192 12.4903 16.4192 12.4402C16.4091 12.38 16.3686 12.1095 16.3179 11.839C16.2774 11.5584 16.2774 11.0875 16.3382 10.7468C16.3888 10.4262 16.3989 10.1356 16.3686 10.1055C16.2774 10.0154 15.508 10.2859 15.0322 10.5765C14.7893 10.7268 14.4957 10.9973 14.3944 11.1676C14.1515 11.5484 14.03 11.5684 13.949 11.2378C13.8984 11.0274 13.8477 10.9973 13.5541 11.0474C12.9872 11.1476 12.9771 11.1576 13.0277 11.5083C13.0783 11.8089 13.048 11.859 12.6531 12.0995C12.1773 12.38 11.4585 12.5504 11.4585 12.37C11.4585 12.1496 10.3044 13.5323 9.68686 14.4842C9.52488 14.7447 9.20091 15.2056 8.97819 15.5062C8.18854 16.5683 6.94331 18.9631 6.5991 20.0552C6.52823 20.2756 6.37638 20.7065 6.24477 21.0071C5.94105 21.7285 5.02991 24.514 4.86793 25.2154C4.79706 25.516 4.70595 25.8066 4.65533 25.8567C4.61484 25.9168 4.57434 26.037 4.57434 26.1372C4.57434 26.4378 4.0479 27.6402 3.95679 27.55C3.82518 27.4198 4.0479 25.2455 4.22001 24.9148C4.301 24.7545 4.37187 24.484 4.37187 24.3136V24.013L4.16939 24.2134C4.05803 24.3236 3.96691 24.4539 3.96691 24.494C3.96691 24.5441 3.89605 24.6643 3.81506 24.7745C3.6632 24.9549 3.6632 24.9248 3.72394 24.4138C3.75431 24.1132 3.85555 23.7425 3.92642 23.5922C4.20988 23.0411 4.59459 21.2275 4.5136 20.7566C4.48323 20.5061 4.41236 20.2756 4.36174 20.2456C4.31112 20.2155 4.301 20.2656 4.33137 20.3458C4.36174 20.4259 4.27063 20.7065 4.12889 20.977C3.98716 21.2375 3.86568 21.5381 3.86568 21.6383C3.86568 21.8588 3.57209 22.9109 3.50122 22.9109C3.48097 22.9109 3.49109 22.6303 3.51134 22.2796C3.56196 21.7085 3.55184 21.6784 3.44048 21.969C3.36961 22.1393 3.22788 22.3898 3.13676 22.5201C2.98491 22.7305 2.98491 22.6804 3.15701 22.0592C3.30887 21.5482 3.32911 21.3377 3.238 21.2576C3.15701 21.1874 3.14689 21.1975 3.1975 21.2876C3.26837 21.4079 3.0254 21.7486 2.93429 21.6584C2.91404 21.6283 2.78243 21.8287 2.6407 22.0993C2.50909 22.3698 2.36735 22.5702 2.31673 22.5401C2.27624 22.5201 2.27624 22.4499 2.30661 22.3898C2.34711 22.3297 2.32686 22.3097 2.27624 22.3397C2.2155 22.3798 2.07376 22.7405 1.95228 23.1313C1.83079 23.5321 1.68906 24.0231 1.61819 24.2134C1.49671 24.5942 1.43596 24.8347 1.13225 26.3677C0.686804 28.572 0.241357 31.8285 0.17049 33.4818C0.140119 34.1932 0.0894998 35.0549 0.0692522 35.3855C-0.0623571 37.2191 -0.00161434 39.1029 0.210985 40.1349C0.322347 40.706 0.423585 41.2571 0.423585 41.3673C0.423585 41.4675 0.534947 41.6579 0.67668 41.7882C0.88928 41.9886 0.950022 42.1689 1.04114 42.9104C1.14237 43.7521 1.34485 44.5737 1.55745 44.9945C1.63844 45.1448 1.67894 45.1548 1.73968 45.0446C1.85104 44.8743 2.14463 45.0947 2.14463 45.3552C2.14463 45.4554 2.175 45.6157 2.2155 45.7159C2.27624 45.8763 2.28636 45.8763 2.34711 45.6959C2.40785 45.5256 2.43822 45.5456 2.59008 45.8362C2.68119 46.0065 2.80268 46.1568 2.8533 46.1568C2.91404 46.1568 2.95453 46.227 2.95453 46.3071C2.95453 46.3873 3.00515 46.4574 3.05577 46.4574C3.11651 46.4574 3.25825 46.6678 3.37973 46.9283C3.59233 47.3893 3.60246 47.3993 3.64295 47.1187C3.6632 46.9684 3.58221 46.4674 3.47085 46.0165C2.57995 42.4595 2.46859 41.5778 2.43822 37.5899C2.41797 35.7262 2.48884 34.7843 2.65082 34.6841C2.74193 34.634 2.90391 35.2252 3.05577 36.0869C3.09627 36.3574 3.2785 37.2893 3.4506 38.141C3.6227 38.9927 3.76444 39.7742 3.76444 39.8644C3.76444 39.9646 3.8758 40.2852 4.01753 40.5858C4.15927 40.8864 4.27063 41.1669 4.27063 41.197C4.27063 41.2271 4.40224 41.4275 4.56422 41.6279C4.78694 41.9084 4.92867 42.2892 5.13115 43.1509C5.28301 43.7821 5.46523 44.4635 5.5361 44.6538C5.89043 45.5957 6.05241 45.9464 6.36625 46.3472C6.54848 46.5877 6.70034 46.8682 6.70034 46.9684C6.70034 47.0586 6.74083 47.1588 6.79145 47.1788C6.83195 47.1889 6.91294 47.3191 6.95343 47.4494C7.00405 47.6097 6.99393 47.6598 6.91294 47.6197C6.84207 47.5696 6.80158 47.6297 6.8117 47.78C6.8117 47.9103 6.84207 47.9504 6.87244 47.8802C6.94331 47.6999 7.20653 47.9203 7.20653 48.1708C7.20653 48.271 7.25715 48.3812 7.30777 48.4113C7.36851 48.4514 7.409 48.5315 7.39888 48.5916C7.36851 48.8622 7.41913 48.9724 7.53049 48.9022C7.63173 48.8421 7.63173 48.8521 7.54061 48.9724C7.409 49.1327 7.41913 49.4133 7.56086 49.5335C7.60136 49.5736 7.6216 49.5135 7.59123 49.3932C7.54061 49.2129 7.56086 49.1928 7.70259 49.273C7.79371 49.3331 7.8747 49.5335 7.89495 49.7239C7.90507 49.9343 8.07717 50.3251 8.32014 50.6757C8.54287 51.0064 8.7251 51.307 8.7251 51.3371C8.7251 51.4974 10.3044 53.2108 11.5294 54.3931C12.2887 55.1245 13.1897 55.9963 13.5339 56.3269C14.2628 57.0383 16.9557 59.4631 17.2392 59.6635C17.3404 59.7337 17.5834 59.9341 17.7656 60.0944C17.9378 60.2547 18.3832 60.5553 18.7477 60.7557C19.1121 60.9561 19.4259 61.1465 19.4563 61.1865C19.7094 61.5072 22.6251 62.9801 23.6476 63.3007C24.3664 63.5312 24.9232 63.8518 24.9232 64.0522C24.9232 64.2225 24.9434 64.2225 24.417 64.0422C23.7184 63.8017 23.7083 63.8718 24.3967 64.1925C24.7409 64.3528 25.0244 64.5331 25.0244 64.5832C25.0244 64.7335 24.8422 64.8137 24.7713 64.6935C24.7409 64.6434 24.6296 64.5933 24.5385 64.5933C24.417 64.5933 24.4372 64.6333 24.6195 64.7636C25.0953 65.0842 25.1256 65.2947 24.7004 65.4049C24.4777 65.465 24.4271 65.4349 24.3765 65.2345C24.2955 64.9139 23.9715 64.7536 23.7286 64.9039C23.3945 65.1143 23.2932 65.3548 23.4248 65.6453C23.5565 65.9359 24.012 65.996 24.2145 65.7455C24.3765 65.5552 25.0244 65.5451 25.0244 65.7255C25.0244 65.7956 24.9637 65.9459 24.8827 66.0461C24.7308 66.2566 24.7409 66.2766 25.3079 66.8577C25.5711 67.1383 25.6116 67.2385 25.5306 67.3988C25.3686 67.6994 25.2269 67.7295 25.0143 67.5391C24.913 67.4489 24.7916 67.3888 24.7713 67.4189C24.6903 67.499 25.318 68 25.5002 68C25.6926 68 25.9254 67.7194 25.9355 67.479C25.9355 67.2084 26.1583 66.7976 26.2899 66.7976C26.3607 66.7976 26.4316 66.6072 26.462 66.3768C26.5329 65.7756 27.0188 64.7836 27.201 64.8638C27.282 64.8939 27.3833 64.8438 27.4136 64.7536C27.4541 64.6534 27.5452 64.6133 27.6566 64.6434C27.7983 64.6834 27.8489 64.6333 27.8793 64.3929C27.9299 64.0823 27.7983 63.9921 27.5857 64.2025C27.4642 64.3227 27.3326 63.6314 27.3326 62.8198C27.3326 62.2687 27.1808 61.6875 27.039 61.6875C26.8467 61.6875 26.3405 61.9981 26.3405 62.1184C26.3405 62.1985 26.3 62.1885 26.2393 62.0883C26.1886 62.0082 26.138 61.7076 26.138 61.427C26.138 60.6154 26.5632 60.3048 27.2213 60.6254C27.4642 60.7557 28.9423 61.0262 31.4024 61.3969C31.7669 61.447 32.3338 61.5372 32.6577 61.5973C33.1639 61.6875 33.2753 61.6775 33.3462 61.5573C33.4677 61.3268 34.2067 61.2366 34.4193 61.417C34.561 61.5372 34.8141 61.5472 35.9581 61.4771C36.7073 61.427 37.5982 61.3468 37.9424 61.2867C38.2765 61.2366 38.7826 61.1865 39.056 61.1865C39.3293 61.1865 39.9671 61.0863 40.4632 60.9761C40.9694 60.8559 41.4857 60.7457 41.6173 60.7156C41.8502 60.6555 41.8603 60.6755 41.7995 60.9861C41.7287 61.3368 41.8502 61.5873 42.1032 61.5873C42.1842 61.5873 42.4373 61.4971 42.6702 61.3869C42.903 61.2667 43.6016 60.9761 44.209 60.7256C44.8265 60.4751 45.3935 60.2246 45.4745 60.1745C45.5555 60.1244 45.7883 60.0142 45.9807 59.924C46.173 59.8339 46.6286 59.6335 46.993 59.4631C47.3575 59.2928 47.9042 59.0924 48.2079 59.0122C48.5116 58.9321 48.8558 58.7918 48.9672 58.6916C49.0785 58.5914 49.6455 58.1806 50.2327 57.7898C50.8198 57.389 51.4981 56.9181 51.7512 56.7277C52.0043 56.5373 52.2675 56.347 52.3384 56.3169C52.9053 56.0464 56.3171 52.7799 56.8232 52.0184C56.9751 51.798 57.2586 51.4373 57.461 51.2268C57.6635 51.0064 57.9774 50.5956 58.1697 50.3251C59.4149 48.4514 59.8908 47.6999 60.0629 47.279C60.1742 47.0185 60.4678 46.4273 60.7007 45.9564C61.6118 44.1929 62.3913 41.5677 62.8267 38.8424C62.857 38.652 62.8874 38.2111 62.8975 37.8604C62.9076 37.5197 62.9583 37.2392 63.0089 37.2392C63.0494 37.2392 63.0899 37.0989 63.0899 36.9286C63.0899 36.5378 63.3126 36.5879 63.4037 36.9987C63.4645 37.2492 63.4746 37.2592 63.4948 37.0588C63.5049 36.9386 63.5252 36.7883 63.5353 36.7182C63.5353 36.658 63.6366 36.5979 63.7378 36.5779C64.0415 36.5378 64.1023 36.3374 64.0618 35.5559C64.0415 35.1651 64.0516 34.8344 64.0921 34.8344C64.2035 34.8344 64.406 35.5458 64.406 35.9065C64.406 36.0669 64.4768 36.4276 64.5578 36.6981C64.6894 37.0989 64.7097 37.6099 64.6692 39.4435C64.6186 41.4976 64.5781 42.0788 64.3553 43.3012C64.2946 43.6118 64.4161 43.4414 64.9122 42.4996C65.2665 41.8383 65.5803 41.2772 65.6107 41.2471C65.6411 41.217 65.7626 41.0167 65.8739 40.7962C65.9752 40.5758 66.1979 40.2351 66.3497 40.0347C66.5016 39.8343 66.6332 39.6439 66.6332 39.6239C66.6332 39.5938 66.7749 39.3333 66.947 39.0327L67.2508 38.4917L67.2103 39.163C67.1596 39.8944 67.2204 40.0047 67.4127 39.5638C67.8379 38.6219 68.0505 36.4476 67.9898 33.582C67.9392 31.1171 67.9392 31.1371 67.5848 28.7724C67.3115 26.9488 66.4307 23.2014 66.127 22.5602C66.0764 22.4499 65.965 22.1293 65.8739 21.8588C65.7828 21.5782 65.5803 21.0772 65.4082 20.7265C65.2462 20.3859 65.1146 20.0652 65.1146 20.0252C65.1146 19.7446 63.0291 16.0072 62.4622 15.2858C62.3103 15.0854 62.1787 14.885 62.1787 14.8549C62.1787 14.8249 61.9864 14.5143 61.7535 14.1836C61.5106 13.8529 61.2777 13.5023 61.217 13.4121C61.1664 13.3119 61.0145 13.1415 60.893 13.0113C60.7614 12.891 60.6602 12.6806 60.6602 12.5504C60.6602 12.2197 60.4577 11.2879 60.3261 11.0173C60.2451 10.837 60.1945 10.8169 60.0831 10.9071C59.9616 10.9973 59.8199 10.8971 59.3137 10.3661C58.9695 10.0053 58.4835 9.58451 58.2305 9.43421C57.9774 9.28391 57.5218 8.94324 57.2181 8.68273C56.9144 8.42221 56.3474 8.00138 55.9526 7.75088C55.5679 7.49037 55.0212 7.11963 54.7377 6.92926C54.4644 6.72886 54.1506 6.51845 54.0493 6.44831C53.938 6.37817 53.7152 6.22787 53.5431 6.09761C53.371 5.97738 53.1787 5.87718 53.1179 5.87718C53.0572 5.87718 52.8446 5.75694 52.6522 5.61666C52.3485 5.38621 49.5037 3.97341 49.3418 3.97341C49.3114 3.97341 49.0988 3.88324 48.8761 3.78304C46.7804 2.8011 41.3946 1.32818 37.1223 0.556659C36.4542 0.436422 35.6544 0.276105 35.3507 0.195946C34.2978 -0.0745887 34.2168 -0.0745887 33.8524 0.256065ZM38.0335 8.68273C38.7017 8.74284 39.3597 8.81298 39.5014 8.84304C39.6432 8.86308 40.3518 8.9733 41.0706 9.0735C41.7995 9.1737 42.5284 9.31397 42.6904 9.38411C42.8625 9.44423 43.5914 9.52439 44.3102 9.55445C45.8288 9.61457 46.2236 9.74483 46.8209 10.3761C47.2563 10.837 47.7422 11.0775 48.4104 11.1476C49.2203 11.2278 50.0707 11.4783 50.2225 11.6887C50.2934 11.7989 50.4149 11.8891 50.4857 11.8891C50.5566 11.8891 50.6477 12.0394 50.6781 12.2297C50.7186 12.4201 50.8097 12.6005 50.8907 12.6305C50.9717 12.6606 51.0426 12.7508 51.0426 12.8309C51.0426 12.9211 51.1539 13.0614 51.2957 13.1516C51.4273 13.2417 51.569 13.4021 51.6095 13.5223C51.65 13.6325 51.8018 13.873 51.9638 14.0333C52.1258 14.2036 52.2372 14.394 52.2169 14.4642C52.1865 14.5243 52.2372 14.6044 52.3182 14.6345C52.3991 14.6646 52.4599 14.7848 52.4599 14.895C52.4599 15.0152 52.5004 15.0854 52.551 15.0453C52.6016 15.0152 52.713 15.1154 52.7839 15.2657C53.0066 15.7066 53.209 16.0272 53.371 16.2076C53.452 16.3078 53.6849 16.6485 53.8772 16.9691C54.0696 17.2897 54.434 17.8408 54.6972 18.2015C54.9503 18.5623 55.1933 18.923 55.2338 19.0031C55.2743 19.0833 55.3553 19.2436 55.4262 19.3538C55.8514 20.0452 56.5701 21.4379 57.0763 22.5602C57.3902 23.2716 57.7546 24.0231 57.8862 24.2235C58.109 24.5842 58.4329 25.4158 58.4329 25.6563C58.4329 25.9268 58.8581 27.1092 58.9999 27.2294C59.0809 27.2895 59.1416 27.4598 59.1416 27.6101C59.1416 27.8506 59.506 28.2915 59.6579 28.2514C59.8098 28.2013 60.1945 29.5139 60.4071 30.7263C60.4881 31.2073 60.6095 32.7102 60.5893 33.081C60.5893 33.2413 60.5792 33.8425 60.569 34.4136C60.5589 34.9747 60.5184 35.4256 60.4779 35.3955C60.4374 35.3755 60.3868 35.5258 60.3868 35.7362C60.3564 36.3975 60.0527 39.163 59.9414 39.7942C59.83 40.4155 59.4858 41.4575 59.3643 41.5477C59.2226 41.6479 59.0404 42.0587 59.091 42.1489C59.1517 42.2491 58.767 43.4414 58.6253 43.6018C58.5747 43.6519 58.5342 43.7521 58.5342 43.8322C58.5342 43.9024 58.3823 44.2731 58.2001 44.6338C58.0077 45.0045 57.7951 45.4855 57.7243 45.6959C57.6534 45.9163 57.4408 46.2971 57.2484 46.5476C57.046 46.7981 56.8536 47.0887 56.8131 47.2089C56.7625 47.3191 56.4284 47.8101 56.064 48.3011C55.6995 48.792 55.3958 49.273 55.3958 49.3832C55.3958 49.4934 55.3553 49.5435 55.2946 49.5135C55.1326 49.4133 55.1731 49.5836 55.3755 49.794C55.497 49.9443 55.5072 49.9744 55.3958 49.9142C55.2642 49.8341 55.2642 49.8541 55.3755 49.9844C55.4869 50.1247 55.4768 50.1948 55.335 50.4353C55.082 50.8361 54.7276 51.1667 54.5353 51.1667C54.4543 51.1667 54.3834 51.2369 54.3834 51.317C54.3834 51.3972 54.3227 51.4773 54.2619 51.4773C53.9886 51.5074 53.7254 51.4473 53.6241 51.3471C53.5533 51.2669 53.5735 51.2669 53.6747 51.317C53.7962 51.3771 53.7962 51.3671 53.7051 51.2669C53.614 51.1667 53.5533 51.1667 53.4318 51.297C53.3103 51.4172 53.3002 51.4673 53.4014 51.4974C53.4621 51.5274 53.4318 51.5575 53.3204 51.5575C53.1483 51.5675 53.1483 51.5876 53.2698 51.6677C53.4014 51.7479 53.4014 51.7679 53.2799 51.7679C53.1686 51.7679 53.1787 51.798 53.3103 51.8982C53.4723 52.0184 53.4723 52.0384 53.3305 52.1587C53.2495 52.2288 53.1281 52.2589 53.0673 52.2188C53.0066 52.1787 52.9762 52.2088 52.9863 52.2789C53.0066 52.3491 52.9155 52.4593 52.794 52.5194C52.551 52.6196 52.47 52.8701 52.6725 52.8701C52.7535 52.8701 52.7636 52.9102 52.6725 53.0003C52.6117 53.0805 52.6016 53.1807 52.6421 53.2208C52.6826 53.2709 52.6624 53.2709 52.5915 53.2308C52.5206 53.1907 52.4903 53.0905 52.5206 52.9903C52.5713 52.85 52.551 52.85 52.4194 53.0104C52.3283 53.1206 52.2979 53.2308 52.3485 53.2709C52.4093 53.3009 52.4093 53.3811 52.3587 53.4713C52.308 53.5514 52.2372 53.5815 52.1967 53.5414C52.1562 53.5013 52.0144 53.5414 51.893 53.6216C51.6399 53.7819 51.5083 53.7017 51.6601 53.4713C51.7107 53.3911 51.7512 53.3611 51.7512 53.4011C51.7512 53.4512 51.8018 53.4512 51.8525 53.4212C51.9335 53.3711 51.9335 53.311 51.8626 53.2308C51.7816 53.1406 51.812 53.1106 51.9841 53.1106C52.1157 53.1206 52.2068 53.0605 52.2068 52.9703C52.2068 52.7799 52.5105 52.4693 52.6927 52.4693C52.9053 52.4693 52.9762 52.3491 52.8547 52.2088C52.794 52.1386 52.7737 52.0284 52.8142 51.9583C52.875 51.8781 52.9155 51.8881 52.9762 51.9783C53.0471 52.0885 53.0673 52.0785 53.0673 51.9382C53.0673 51.6978 52.8446 51.7679 52.713 52.0485C52.6624 52.1687 52.5611 52.2689 52.5004 52.2689C52.4396 52.2689 52.2878 52.3791 52.1562 52.5194C52.0246 52.6597 51.8626 52.7699 51.7917 52.7699C51.7209 52.7699 51.5285 52.8901 51.3766 53.0304C51.2248 53.1707 51.1539 53.2508 51.2349 53.2108C51.3463 53.1607 51.3665 53.1907 51.326 53.351C51.2855 53.4813 51.3361 53.6617 51.4576 53.8019C51.6196 54.0224 51.6297 54.0624 51.488 54.2328C51.3463 54.4131 51.3361 54.4131 51.3564 54.1727C51.3766 53.7919 51.3463 53.7118 51.2552 53.862C51.1843 53.9723 51.1438 53.9522 51.0426 53.7719C50.9717 53.6516 50.9616 53.5715 51.0223 53.6116C51.0729 53.6416 51.1438 53.6015 51.1843 53.5214C51.245 53.341 51.2349 53.341 50.8907 53.4713C50.749 53.5214 50.6579 53.6116 50.6882 53.6717C50.7186 53.7218 50.6882 53.7418 50.6072 53.7118C50.5262 53.6817 50.4048 53.7318 50.3339 53.822C50.263 53.9021 50.1618 53.9723 50.101 53.9723C50.0403 53.9723 49.9188 54.0324 49.8378 54.1125C49.686 54.2328 49.0482 54.6035 48.5521 54.844C48.4509 54.8941 48.1775 55.0344 47.9548 55.1546C46.9222 55.6857 46.4362 55.886 45.0189 56.347C40.8783 57.7197 40.8681 57.7197 36.5554 57.5794C31.7972 57.4291 30.2078 57.2988 27.6566 56.8179C25.6318 56.4271 24.2449 55.886 23.0503 55.0243C22.8883 54.8941 22.4023 54.6035 21.9873 54.3731C21.5722 54.1426 21.2077 53.9222 21.1774 53.8721C21.1267 53.7819 19.8815 52.8701 19.8208 52.8701C19.7297 52.8701 17.8365 50.9864 17.8365 50.8862C17.8365 50.8361 17.5126 50.4553 17.1177 50.0445C16.7128 49.6437 16.2167 49.0926 16.0142 48.8121C15.8118 48.5415 15.5587 48.2409 15.4574 48.1608C15.0828 47.8502 13.2403 45.3051 12.4709 44.0226C12.2785 43.712 12.0862 43.4515 12.0356 43.4515C11.9951 43.4515 11.904 43.3112 11.8533 43.1509C11.7926 42.9805 11.6711 42.8503 11.5901 42.8503C11.499 42.8503 11.4686 42.7902 11.499 42.6699C11.5294 42.5797 11.5091 42.4294 11.4585 42.3493C11.3978 42.2491 11.3573 42.2391 11.3573 42.3192C11.3573 42.6098 11.1751 42.4094 10.9422 41.8784C10.8106 41.5677 10.6385 41.2571 10.5676 41.177C10.3854 40.9966 10.517 40.7962 10.7094 40.9565C10.9625 41.1669 10.9827 40.9766 10.7701 40.3253C10.6587 39.9746 10.5373 39.5538 10.4968 39.3734C10.4664 39.193 10.355 39.0327 10.2639 39.0127C10.1728 38.9826 11.0232 38.9626 12.1672 38.9526C13.3112 38.9426 14.445 38.9025 14.6981 38.8724C14.9512 38.8424 16.3179 38.8223 17.7353 38.8323L20.3168 38.8524L20.823 39.193C21.1065 39.3734 21.5115 39.6139 21.7342 39.7341C21.9569 39.8443 22.2505 40.0247 22.3922 40.1349L22.6453 40.3453H20.6509C19.3855 40.3453 18.6464 40.3854 18.6464 40.4455C18.6464 40.4956 18.5148 40.5457 18.3427 40.5457C18.1807 40.5457 18.039 40.5056 18.039 40.4656C18.039 40.3854 17.4113 40.195 16.8039 40.0848C16.3787 40.0147 16.2977 40.1549 16.571 40.5056C16.7735 40.7662 16.7634 40.8463 16.5103 40.8463C16.3888 40.8463 16.3179 40.8964 16.3483 40.9666C16.3888 41.1068 16.9254 41.1068 17.715 40.9866C18.0592 40.9365 18.1402 40.9565 18.1402 41.0768C18.1402 41.207 18.2415 41.2271 18.6667 41.197C18.9603 41.177 19.2741 41.207 19.3753 41.2571C19.4766 41.3172 19.5677 41.3072 19.6082 41.2471C19.6385 41.197 19.7195 41.177 19.7904 41.197C19.8613 41.217 20.165 41.2671 20.4687 41.2972C21.2887 41.3974 42.9435 41.5677 45.3732 41.4976C47.7726 41.4375 50.4554 41.2571 51.4475 41.0968C51.6399 41.0668 52.2777 40.9766 52.8648 40.8864C53.9076 40.7461 54.2316 40.676 55.0313 40.4355C55.3857 40.3253 55.416 40.3052 55.2541 40.185C55.1224 40.0948 54.1404 40.0548 51.0426 40.0447C47.0032 40.0347 46.1123 39.9946 45.93 39.8343C45.8794 39.7842 46.4565 39.7441 47.3474 39.7341C48.1876 39.7341 49.0279 39.7141 49.2203 39.694C49.4126 39.674 50.1719 39.6039 50.8907 39.5337C51.6196 39.4736 52.2777 39.3834 52.3587 39.3433C52.4396 39.3033 52.9661 39.2331 53.5128 39.193C54.8896 39.0928 55.1933 39.0528 56.56 38.7923C56.9549 38.7221 57.5015 38.6319 57.7749 38.5919C58.6658 38.4917 59.0707 38.3915 59.0707 38.2913C59.0606 38.0608 57.7445 37.5298 56.7625 37.3795C56.6005 37.3494 56.2158 37.2893 55.9121 37.2392C55.6084 37.1791 55.1022 37.139 54.7884 37.139H54.2214L54.0898 36.648C53.9177 35.9767 53.6444 35.5058 53.1382 34.9947C52.9053 34.7543 52.5308 34.3735 52.308 34.1431C52.0853 33.9226 51.8423 33.7323 51.7816 33.7323C51.7107 33.7323 51.65 33.6922 51.65 33.6421C51.65 33.5519 51.1438 32.8906 50.749 32.4497C50.4453 32.1291 50.1415 32.1591 50.0707 32.5299C50.0099 32.8305 49.8378 32.9507 49.8176 32.7002C49.8075 32.4297 49.6353 33.0008 49.6353 33.3515C49.6252 33.5619 49.5746 33.7323 49.524 33.7323C49.4632 33.7323 49.4329 33.7022 49.443 33.6521C49.4531 33.612 49.4329 33.4216 49.3924 33.2313C49.3316 32.9607 49.2911 32.9206 49.2203 33.0309C49.1697 33.121 49.1697 33.2212 49.2405 33.3014C49.3924 33.4918 49.3013 33.5519 48.7647 33.602C48.4002 33.6521 48.3091 33.6922 48.3091 33.8525C48.3091 34.0128 48.2585 34.0429 48.056 33.9928C47.8536 33.9427 47.8029 33.9627 47.8029 34.133C47.8029 34.2633 47.7321 34.3334 47.6005 34.3334C47.317 34.3334 47.3372 34.6541 47.6612 35.0248C47.9042 35.3154 47.9346 35.3254 48.6432 35.2853C49.0482 35.2653 49.9188 35.2352 50.587 35.2252C51.7512 35.2052 51.8221 35.2152 52.0651 35.4456C52.2068 35.5759 52.3789 35.7763 52.4396 35.8865C52.5409 36.0869 52.5206 36.0969 50.5364 36.0869C48.6331 36.0869 48.1876 36.137 48.5015 36.3274C48.704 36.4576 51.9233 36.4677 52.0043 36.3374C52.1056 36.1771 52.5915 36.2272 52.8446 36.4276C52.9661 36.5378 53.0673 36.648 53.0673 36.6781C53.0673 36.7081 52.1157 36.7382 50.9616 36.7382C49.7265 36.7382 48.8153 36.7783 48.7546 36.8384C48.704 36.8885 47.8738 36.9686 46.9019 36.9987C45.4542 37.0588 45.1404 37.0488 45.0594 36.9286C45.0088 36.8484 44.9683 34.1831 44.9683 30.9167V25.0351L44.5937 24.504C44.3912 24.2034 44.1078 23.8227 43.966 23.6623C43.8243 23.492 43.6117 23.1714 43.5105 22.9309C43.4092 22.7004 43.2877 22.5101 43.2472 22.5101C43.2169 22.5101 43.1055 22.6804 43.0144 22.8908C42.7815 23.4219 42.4171 23.7325 41.4756 24.2134C41.0301 24.4439 40.6252 24.6743 40.5644 24.7144C40.5138 24.7545 40.2607 24.8347 40.0076 24.8848L39.5521 24.9749L39.5014 30.9768C39.4711 34.2833 39.4407 36.9987 39.4204 37.0087C39.4103 37.0288 39.0155 37.0388 38.5397 37.0388H37.6792V31.3275C37.6792 25.7164 37.6792 25.6162 37.4767 25.6162C37.3248 25.6162 37.2438 25.496 37.1223 25.0952C37.0414 24.8146 36.9705 24.4539 36.9705 24.3036C36.9705 24.1533 36.8895 23.9329 36.7781 23.8026C36.5959 23.5822 36.5858 23.5822 35.624 23.6924C35.0875 23.7625 34.5104 23.8126 34.3484 23.8126H34.0346V20.977C34.0346 19.424 33.9941 18.0011 33.9333 17.8108C33.7005 16.9891 32.5666 15.4962 32.1718 15.4962C32.1009 15.4962 31.939 15.406 31.8073 15.2958C31.6757 15.1856 31.5239 15.0954 31.453 15.0954C31.3822 15.0954 31.1797 15.0253 31.0076 14.9351C30.795 14.8249 30.5318 14.7848 30.2888 14.8249C30.0559 14.8549 29.8535 14.8249 29.7725 14.7447C29.6915 14.6746 29.3675 14.5944 29.0537 14.5644C28.3653 14.4942 28.3653 14.4942 28.3653 15.6966C28.3653 16.2777 28.3146 16.6685 28.2134 16.8589C28.1324 17.0192 28.0615 17.3799 28.0615 17.6705C28.0615 18.0512 28.0109 18.2216 27.8894 18.3218C27.7173 18.442 27.7072 19.0131 27.687 27.4198C27.6768 32.3495 27.6465 36.4777 27.6161 36.5979C27.5452 36.8584 27.1403 37.0388 26.4924 37.1089C26.0368 37.159 25.9355 37.129 25.6521 36.8885L25.3281 36.618L25.3889 29.4438L25.4496 22.2596L25.0851 21.8888C24.8827 21.6784 24.417 21.2776 24.0424 20.9871C23.6577 20.7065 23.1718 20.2957 22.9389 20.0853C22.1999 19.3839 21.2077 19.0131 20.8939 19.3238C20.8129 19.4039 20.7724 19.8348 20.7724 20.6263C20.7724 21.6985 20.7522 21.8087 20.5699 21.9089C20.3675 22.0191 20.3675 22.1193 20.3675 29.5239V37.0388H19.5576H18.7477V34.4837C18.7477 32.0289 18.7375 31.9287 18.5452 31.8285C18.4136 31.7583 17.7353 31.7283 16.6925 31.7483L15.0525 31.7784L15.0221 31.4578C14.9614 30.8866 14.7791 30.8666 12.3595 31.087C11.7926 31.1371 11.6205 31.1071 11.2763 30.9367C10.7296 30.6662 10.4259 30.7764 10.1323 31.3475C9.9197 31.7483 9.89946 31.9688 9.82859 34.3334C9.7881 35.7362 9.7476 36.9386 9.7476 36.9987C9.73748 37.0688 9.59574 37.0889 9.3629 37.0488L8.97819 36.9887L8.94782 35.4356C8.92757 34.5839 8.96807 33.3615 9.03893 32.7303C9.09968 32.099 9.17054 31.5079 9.17054 31.4277C9.18067 31.3375 9.22116 31.2273 9.25153 31.1772C9.28191 31.1171 9.33252 30.7864 9.37302 30.4257C9.44389 29.7744 9.49451 29.564 9.99057 27.6202C10.4765 25.7364 11.5395 23.0411 12.3798 21.5682C13.2201 20.0752 13.6554 19.3739 13.8579 19.1534C13.9591 19.0432 14.3033 18.5923 14.607 18.1514C15.5182 16.8689 17.4619 14.9852 19.3045 13.6125C20.6104 12.6406 20.8028 12.5203 23.1009 11.2879C24.2348 10.6767 27.1403 9.60455 28.4665 9.31397C28.831 9.23381 29.4485 9.10356 29.8332 9.0234C30.228 8.93322 30.633 8.84304 30.7444 8.823C30.8557 8.79294 31.4935 8.73282 32.1617 8.67271C32.8299 8.62261 33.4272 8.55247 33.4778 8.53243C33.6499 8.46229 36.768 8.56249 38.0335 8.68273ZM11.5294 21.3277C11.3674 21.6784 11.1751 22.0692 11.0941 22.2095C10.2133 23.7225 8.9377 27.1593 8.56312 28.9728C8.0873 31.3175 7.99618 32.1892 7.98606 34.5138C7.98606 36.2572 7.95569 36.7382 7.85445 36.6981C7.63173 36.6079 7.46975 37.1891 7.59123 37.67C7.71272 38.1009 7.8342 38.672 7.8747 38.9426C7.88482 39.0227 8.01643 39.4536 8.16829 39.8944C8.31002 40.3353 8.50237 40.9666 8.58336 41.3072C8.65423 41.6379 8.88708 42.189 9.08955 42.5296C9.45401 43.1308 9.62611 43.2811 9.64636 43.0206C9.65649 42.9605 9.69698 43.0306 9.73748 43.201C10.0209 44.2731 10.1424 44.6639 10.2842 44.9144C10.3753 45.0747 10.6081 45.4755 10.8005 45.8061C10.9928 46.1368 11.2864 46.6578 11.4484 46.9584C11.6104 47.259 12.0255 47.8902 12.3595 48.3612C12.6936 48.8321 13.1796 49.5135 13.4327 49.8842C13.6858 50.2549 14.3438 51.0365 14.8804 51.6176C15.4169 52.2088 16.0648 52.9202 16.3179 53.2007C17.6948 54.7538 21.3596 58.2106 22.3618 58.892C22.8377 59.2226 24.5385 60.0844 24.6903 60.0844C24.7511 60.0844 24.8219 60.395 24.8624 60.7757C24.8928 61.1565 24.994 61.5873 25.075 61.7476C25.156 61.908 25.2269 62.1184 25.2269 62.2286C25.2269 62.3789 25.1661 62.3488 24.9232 62.0883C24.6093 61.7577 24.3967 61.7577 24.4878 62.0883C24.5182 62.1985 24.498 62.2887 24.4575 62.2887C24.1335 62.2787 23.2325 61.948 22.5036 61.5773C22.0379 61.3368 21.0863 60.8459 20.3776 60.4851C18.5553 59.5533 17.7656 59.1124 17.2392 58.7217C16.9861 58.5313 16.6925 58.3509 16.6014 58.3209C16.5002 58.2808 16.4192 58.1806 16.4192 58.0904C16.4192 57.9702 16.3989 57.9602 16.3281 58.0603C16.2673 58.1706 16.1863 58.1505 15.9839 57.9602C15.8522 57.8299 15.589 57.5994 15.4068 57.4391C15.1537 57.2187 15.1132 57.1385 15.2144 57.0684C15.3359 56.9982 15.3258 56.9782 15.2043 56.9782C14.9715 56.9682 14.6678 56.6676 14.445 56.2267C14.3337 56.0063 14.2021 55.8059 14.1515 55.7859C14.111 55.7658 14.1312 55.7157 14.2021 55.6656C14.3134 55.5855 14.2932 55.5354 14.1008 55.375C13.9692 55.2648 13.8882 55.1446 13.9186 55.1145C14.0097 55.0143 13.6149 54.3129 13.3618 54.1025C13.2302 54.0023 13.0783 53.822 13.0277 53.7017C12.967 53.5815 12.7139 53.2609 12.4507 52.9903C12.1874 52.7198 12.0052 52.4693 12.0356 52.4292C12.0761 52.3992 12.0255 52.3691 11.9343 52.3691C11.8432 52.3691 11.742 52.2589 11.7015 52.1286C11.6711 51.9883 11.5496 51.798 11.4383 51.6978C11.1649 51.4573 9.83871 49.6036 9.83871 49.4734C9.83871 49.4133 9.80834 49.3632 9.76785 49.3632C9.71723 49.3632 9.535 49.0425 9.34265 48.6618C9.16042 48.271 8.96807 47.9604 8.91745 47.9604C8.86683 47.9604 8.82633 47.9003 8.82633 47.8201C8.82633 47.6898 8.58336 47.0586 8.15816 46.0767C8.0873 45.9063 8.05693 45.756 8.10755 45.756C8.24928 45.756 8.39101 45.9865 8.472 46.3372C8.5125 46.5175 8.74534 47.0285 8.98832 47.4694C9.23129 47.9003 9.43376 48.3011 9.43376 48.3512C9.43376 48.3912 9.52488 48.5315 9.63624 48.6618C9.7476 48.792 9.83871 48.9523 9.83871 49.0125C9.83871 49.0826 9.90958 49.1928 9.99057 49.263C10.0716 49.3331 10.1121 49.4233 10.0817 49.4734C10.0513 49.5235 10.1019 49.5936 10.1829 49.6237C10.274 49.6537 10.3145 49.7239 10.2943 49.774C10.2639 49.814 10.3247 49.9443 10.4461 50.0645C10.5575 50.1748 10.6284 50.2649 10.6081 50.2649C10.5778 50.2649 10.6891 50.4152 10.8612 50.5856C11.0232 50.7659 11.1548 50.9563 11.1548 51.0264C11.1548 51.0866 11.2763 51.1968 11.418 51.2669C11.6408 51.3872 11.6914 51.3872 11.7825 51.2669C11.8635 51.1467 11.8736 51.1467 11.823 51.287C11.7926 51.3872 11.823 51.4673 11.8837 51.4673C11.9546 51.4673 11.9141 51.5375 11.8027 51.6176C11.6205 51.7579 11.6306 51.7679 11.8736 51.6777C12.1469 51.5775 12.3697 51.6877 12.3697 51.9082C12.3697 51.9683 12.3292 51.9583 12.2785 51.8781C12.2178 51.7879 12.1672 51.7779 12.1267 51.8581C12.0558 51.9683 12.0862 51.9783 12.4507 52.0084C12.5418 52.0184 12.6936 52.0585 12.7746 52.1186C12.9062 52.1988 12.9062 52.1887 12.7847 52.0384C12.7139 51.9483 12.6025 51.8982 12.5418 51.9382C12.481 51.9783 12.4608 51.9382 12.5013 51.838C12.5418 51.7378 12.481 51.6076 12.3292 51.4974C12.0862 51.297 10.5271 49.2529 10.1526 48.6117C10.0209 48.3912 9.77797 47.9604 9.60587 47.6598C9.44389 47.3592 9.25153 47.0386 9.18067 46.9584C9.1098 46.8782 8.92757 46.5776 8.78584 46.3071C8.64411 46.0266 8.33027 45.5155 8.10755 45.1548C7.51024 44.233 6.61935 41.9485 7.11541 42.6499C7.20653 42.7701 7.21665 42.7701 7.16603 42.6198C7.05467 42.2791 6.9838 39.9345 7.08504 39.8143C7.20653 39.674 7.29764 38.4315 7.1964 38.5017C7.14578 38.5217 7.14578 38.2612 7.17616 37.9105C7.21665 37.4396 7.1964 37.2392 7.09517 37.1891C7.00405 37.129 6.9838 37.149 7.03442 37.2692C7.06479 37.3694 7.05467 37.4396 7.00405 37.4396C6.88257 37.4396 6.87244 37.2091 6.9838 37.0989C7.11541 36.9686 7.08504 36.157 6.94331 36.2071C6.8117 36.2572 6.69021 35.3354 6.73071 34.634C6.74083 34.4437 6.71046 34.1731 6.66997 34.0328C6.5991 33.8324 6.60922 33.8124 6.70034 33.9326C6.80158 34.0529 6.80158 34.0429 6.73071 33.8825C6.62947 33.6321 6.61935 31.057 6.72059 30.3255C6.84207 29.5039 6.86232 29.4338 7.14578 28.6923C7.28752 28.3216 7.409 28.0009 7.409 27.9709C7.41913 27.9508 7.51024 27.7304 7.61148 27.4999C7.72284 27.2595 7.81396 26.9989 7.81396 26.9088C7.81396 26.6683 8.22903 25.4759 8.38089 25.3156C8.45175 25.2355 8.58336 24.9649 8.6846 24.7144C8.77572 24.4639 8.94782 24.1633 9.05918 24.0331C9.17054 23.9128 9.22116 23.8126 9.17054 23.8126C9.11992 23.8126 9.14017 23.7726 9.22116 23.7225C9.30215 23.6724 9.38314 23.502 9.41351 23.3417C9.43376 23.1914 9.535 22.981 9.63624 22.8908C9.73748 22.7906 9.9602 22.5201 10.1323 22.2896C10.2943 22.0492 10.5474 21.7486 10.6891 21.6183C10.8308 21.4981 10.9321 21.3478 10.9017 21.2977C10.8207 21.1674 11.2257 20.8067 11.4585 20.8067C11.5699 20.8067 11.661 20.7566 11.661 20.6965C11.661 20.6464 11.7015 20.6163 11.742 20.6464C11.7926 20.6764 11.7015 20.9871 11.5294 21.3277ZM3.43035 23.2315C3.39998 23.3116 3.36961 23.2816 3.36961 23.1714C3.35949 23.0612 3.38986 23.001 3.42023 23.0411C3.4506 23.0712 3.46072 23.1614 3.43035 23.2315ZM49.119 33.9827C49.119 34.0629 49.0785 34.133 49.0178 34.133C48.9672 34.133 48.9469 34.0629 48.9773 33.9827C49.0178 33.9026 49.0583 33.8324 49.0785 33.8324C49.0988 33.8324 49.119 33.9026 49.119 33.9827ZM52.9155 37.2692C52.5308 37.3093 52.0043 37.3294 51.7512 37.3193C51.4374 37.2993 51.6196 37.2592 52.3587 37.1891C52.9458 37.129 53.4723 37.1089 53.5229 37.129C53.5836 37.159 53.3103 37.2191 52.9155 37.2692ZM53.9785 37.2392C53.9785 37.2893 53.938 37.3394 53.8873 37.3394C53.8266 37.3394 53.7557 37.2893 53.7254 37.2392C53.695 37.1791 53.7355 37.139 53.8165 37.139C53.9076 37.139 53.9785 37.1791 53.9785 37.2392ZM52.6624 37.9406C52.2473 37.9806 51.4981 38.0107 50.9919 38.0107C50.1415 38.0107 50.1213 38.0007 50.6882 37.9406C51.0223 37.9005 51.7715 37.8704 52.3587 37.8704C53.4216 37.8704 53.4216 37.8704 52.6624 37.9406ZM49.8783 38.1309C49.7568 38.2412 47.9852 38.3213 48.0864 38.2211C48.1269 38.181 48.5217 38.1309 48.9672 38.1109C49.4126 38.1009 49.8176 38.0708 49.8783 38.0608C49.9391 38.0508 49.9391 38.0708 49.8783 38.1309ZM5.7487 38.9125C5.63734 39.0227 5.5766 38.8724 5.65759 38.682C5.72845 38.5017 5.73858 38.5017 5.76895 38.672C5.7892 38.7722 5.77907 38.8824 5.7487 38.9125ZM8.52262 39.9045C8.52262 40.0447 8.49225 40.0447 8.37076 39.9445C8.28977 39.8744 8.21891 39.8043 8.21891 39.7842C8.21891 39.7642 8.28977 39.7441 8.37076 39.7441C8.45175 39.7441 8.52262 39.8143 8.52262 39.9045ZM23.3034 40.2451C23.4248 40.3253 23.3945 40.3453 23.1819 40.3453C23.0199 40.3453 22.8984 40.2952 22.8984 40.2451C22.8984 40.1149 23.1009 40.1149 23.3034 40.2451ZM53.9987 51.7378C53.938 51.7579 53.8975 51.828 53.9278 51.8781C53.9683 51.9282 53.9177 51.9382 53.8367 51.9082C53.6342 51.828 53.7254 51.6677 53.9582 51.6777C54.0696 51.6777 54.0797 51.6978 53.9987 51.7378ZM51.6196 53.1206C51.6196 53.2007 51.5791 53.2709 51.5285 53.2709C51.488 53.2709 51.4475 53.2007 51.4475 53.1206C51.4475 53.0404 51.488 52.9703 51.5285 52.9703C51.5791 52.9703 51.6196 53.0404 51.6196 53.1206ZM52.1562 53.7017C52.1562 53.7218 52.0549 53.822 51.9335 53.9322L51.7006 54.1226L51.893 53.8921C52.0752 53.6817 52.1562 53.6216 52.1562 53.7017ZM13.0783 54.4833C13.0783 54.5434 13.0378 54.5534 12.9771 54.5234C12.9265 54.4933 12.8759 54.4131 12.8759 54.363C12.8759 54.3029 12.9265 54.2929 12.9771 54.323C13.0378 54.353 13.0783 54.4332 13.0783 54.4833ZM48.4104 56.5574C48.4104 56.6075 48.2281 56.7377 48.0054 56.868C47.7827 56.9882 47.6005 57.0483 47.6005 56.9882C47.6005 56.9281 47.7118 56.858 47.8536 56.8179C47.9852 56.7878 48.1472 56.6977 48.218 56.6175C48.3496 56.4572 48.4104 56.4371 48.4104 56.5574ZM45.272 58.6315C45.272 58.6515 45.1708 58.7217 45.0493 58.7818C44.8265 58.892 44.8265 58.882 45.0088 58.7417C45.2214 58.5714 45.272 58.5513 45.272 58.6315ZM26.1886 62.8699C25.976 62.92 25.7837 62.7496 25.8849 62.5893C25.9355 62.5091 26.0165 62.5292 26.1583 62.6594C26.3405 62.8198 26.3506 62.8398 26.1886 62.8699ZM26.7151 62.8097C26.6847 62.8899 26.6543 62.8598 26.6543 62.7496C26.6442 62.6394 26.6746 62.5793 26.705 62.6194C26.7353 62.6494 26.7455 62.7396 26.7151 62.8097ZM26.4012 63.6514C26.3405 63.8819 26.138 63.9921 26.138 63.7917C26.138 63.7416 25.9963 63.6614 25.8141 63.6113C25.399 63.5111 25.2977 63.2706 25.7027 63.3508C25.9052 63.3909 26.0368 63.3608 26.138 63.2406C26.2595 63.0903 26.2798 63.0903 26.3709 63.2406C26.4215 63.3308 26.4316 63.5111 26.4012 63.6514ZM27.1504 63.5412C27.1504 63.6714 27.0998 63.8117 27.039 63.8418C26.8771 63.952 26.8163 63.8318 26.9277 63.6213C27.0087 63.4911 26.9884 63.3909 26.8669 63.2506C26.705 63.0703 26.705 63.0703 26.9277 63.1805C27.0593 63.2506 27.1504 63.3909 27.1504 63.5412ZM26.2393 64.1424C26.2393 64.1624 26.0469 64.1624 25.8141 64.1524C25.5002 64.1324 25.3686 64.0823 25.3484 63.962C25.318 63.8117 25.3484 63.8117 25.7736 63.952C26.0267 64.0422 26.2393 64.1223 26.2393 64.1424ZM26.2393 64.4931C26.3304 64.6634 26.3101 64.7536 26.138 64.964C25.8343 65.3548 25.2269 65.3648 25.2269 64.984C25.2269 64.8337 25.2977 64.7937 25.6116 64.7937C25.9457 64.7836 25.9659 64.7736 25.8141 64.6534C25.5711 64.483 25.5812 64.4129 25.8647 64.3628C25.9862 64.3428 26.0975 64.3127 26.1077 64.3027C26.1178 64.3027 26.1785 64.3828 26.2393 64.4931ZM24.012 65.2947C24.012 65.3448 23.9715 65.3948 23.9108 65.3948C23.8602 65.3948 23.8096 65.3448 23.8096 65.2947C23.8096 65.2345 23.8602 65.1945 23.9108 65.1945C23.9715 65.1945 24.012 65.2345 24.012 65.2947ZM26.4519 65.6253C26.3709 65.7055 26.3405 65.6954 26.3405 65.5852C26.3405 65.3848 26.4721 65.2446 26.5227 65.3948C26.5531 65.465 26.5126 65.5652 26.4519 65.6253ZM25.8951 65.5652C25.8748 65.6654 25.8141 66.0161 25.7837 66.3467L25.7027 66.9479L25.5205 66.5171C25.3382 66.0862 25.3382 66.0862 25.561 65.7455C25.8039 65.3748 25.976 65.2846 25.8951 65.5652Z" fill="white"/>
</svg>
