<?xml version="1.0" standalone="no"?>
<!DOCTYPE svg PUBLIC "-//W3C//DTD SVG 20010904//EN"
 "http://www.w3.org/TR/2001/REC-SVG-20010904/DTD/svg10.dtd">
<svg version="1.0" xmlns="http://www.w3.org/2000/svg"
 width="789.000000pt" height="728.000000pt" viewBox="0 0 789.000000 728.000000"
 preserveAspectRatio="xMidYMid meet">

<g transform="translate(0.000000,728.000000) scale(0.100000,-0.100000)"
fill="#000000" stroke="none">
<path d="M3492 7041 c-25 -23 -43 -31 -70 -31 -25 0 -43 -7 -55 -20 -24 -28
-21 -39 16 -83 31 -36 35 -37 129 -49 96 -12 98 -12 122 11 21 20 34 23 111
22 48 0 108 -4 134 -10 175 -40 234 -56 263 -74 28 -17 30 -21 15 -26 -22 -8
-107 -7 -283 4 -222 13 -313 13 -469 -1 -148 -14 -166 -18 -347 -86 -22 -8
-27 -15 -22 -32 6 -25 15 -20 -232 -121 -137 -56 -237 -106 -314 -155 -25 -17
-52 -33 -60 -37 -22 -10 -179 -121 -230 -163 -25 -20 -52 -39 -60 -42 -31 -11
-141 -101 -177 -145 -21 -25 -50 -60 -65 -78 -16 -18 -28 -39 -28 -47 0 -8
-18 -32 -40 -53 -34 -33 -42 -37 -50 -25 -5 8 -10 20 -10 25 -1 6 -5 33 -10
60 -4 28 -4 75 2 109 5 32 6 61 3 64 -9 9 -85 -18 -132 -47 -24 -15 -53 -42
-63 -59 -24 -38 -36 -40 -44 -7 -5 21 -10 24 -39 19 -56 -10 -57 -11 -52 -46
5 -30 2 -35 -37 -59 -47 -28 -118 -45 -118 -27 0 22 -114 -116 -175 -211 -16
-26 -48 -72 -70 -102 -78 -106 -201 -345 -235 -454 -7 -22 -22 -65 -35 -95
-30 -72 -120 -350 -136 -420 -7 -30 -16 -59 -21 -64 -4 -6 -8 -18 -8 -28 0
-30 -52 -150 -61 -141 -13 13 9 230 26 263 8 16 15 43 15 60 l0 30 -20 -20
c-11 -11 -20 -24 -20 -28 0 -5 -7 -17 -15 -28 -15 -18 -15 -15 -9 36 3 30 13
67 20 82 28 55 66 236 58 283 -3 25 -10 48 -15 51 -5 3 -6 -2 -3 -10 3 -8 -6
-36 -20 -63 -14 -26 -26 -56 -26 -66 0 -22 -29 -127 -36 -127 -2 0 -1 28 1 63
5 57 4 60 -7 31 -7 -17 -21 -42 -30 -55 -15 -21 -15 -16 2 46 15 51 17 72 8
80 -8 7 -9 6 -4 -3 7 -12 -17 -46 -26 -37 -2 3 -15 -17 -29 -44 -13 -27 -27
-47 -32 -44 -4 2 -4 9 -1 15 4 6 2 8 -3 5 -6 -4 -20 -40 -32 -79 -12 -40 -26
-89 -33 -108 -12 -38 -18 -62 -48 -215 -44 -220 -88 -545 -95 -710 -3 -71 -8
-157 -10 -190 -13 -183 -7 -371 14 -474 11 -57 21 -112 21 -123 0 -10 11 -29
25 -42 21 -20 27 -38 36 -112 10 -84 30 -166 51 -208 8 -15 12 -16 18 -5 11
17 40 -5 40 -31 0 -10 3 -26 7 -36 6 -16 7 -16 13 2 6 17 9 15 24 -14 9 -17
21 -32 26 -32 6 0 10 -7 10 -15 0 -8 5 -15 10 -15 6 0 20 -21 32 -47 21 -46
22 -47 26 -19 2 15 -6 65 -17 110 -88 355 -99 443 -102 841 -2 186 5 280 21
290 9 5 25 -54 40 -140 4 -27 22 -120 39 -205 17 -85 31 -163 31 -172 0 -10
11 -42 25 -72 14 -30 25 -58 25 -61 0 -3 13 -23 29 -43 22 -28 36 -66 56 -152
15 -63 33 -131 40 -150 35 -94 51 -129 82 -169 18 -24 33 -52 33 -62 0 -9 4
-19 9 -21 4 -1 12 -14 16 -27 5 -16 4 -21 -4 -17 -7 5 -11 -1 -10 -16 0 -13 3
-17 6 -10 7 18 33 -4 33 -29 0 -10 5 -21 10 -24 6 -4 10 -12 9 -18 -3 -27 2
-38 13 -31 10 6 10 5 1 -7 -13 -16 -12 -44 2 -56 4 -4 6 2 3 14 -5 18 -3 20
11 12 9 -6 17 -26 19 -45 1 -21 18 -60 42 -95 22 -33 40 -63 40 -66 0 -16 156
-187 277 -305 75 -73 164 -160 198 -193 72 -71 338 -313 366 -333 10 -7 34
-27 52 -43 17 -16 61 -46 97 -66 36 -20 67 -39 70 -43 25 -32 313 -179 414
-211 71 -23 126 -55 126 -75 0 -17 2 -17 -50 1 -69 24 -70 17 -2 -15 34 -16
62 -34 62 -39 0 -15 -18 -23 -25 -11 -3 5 -14 10 -23 10 -12 0 -10 -4 8 -17
47 -32 50 -53 8 -64 -22 -6 -27 -3 -32 17 -8 32 -40 48 -64 33 -33 -21 -43
-45 -30 -74 13 -29 58 -35 78 -10 16 19 80 20 80 2 0 -7 -6 -22 -14 -32 -15
-21 -14 -23 42 -81 26 -28 30 -38 22 -54 -16 -30 -30 -33 -51 -14 -10 9 -22
15 -24 12 -8 -8 54 -58 72 -58 19 0 42 28 43 52 0 27 22 68 35 68 7 0 14 19
17 42 7 60 55 159 73 151 8 -3 18 2 21 11 4 10 13 14 24 11 14 -4 19 1 22 25
5 31 -8 40 -29 19 -12 -12 -25 57 -25 138 0 55 -15 113 -29 113 -19 0 -69 -31
-69 -43 0 -8 -4 -7 -10 3 -5 8 -10 38 -10 66 0 81 42 112 107 80 24 -13 170
-40 413 -77 36 -5 92 -14 124 -20 50 -9 61 -8 68 4 12 23 85 32 106 14 14 -12
39 -13 152 -6 74 5 162 13 196 19 33 5 83 10 110 10 27 0 90 10 139 21 50 12
101 23 114 26 23 6 24 4 18 -27 -7 -35 5 -60 30 -60 8 0 33 9 56 20 23 12 92
41 152 66 61 25 117 50 125 55 8 5 31 16 50 25 19 9 64 29 100 46 36 17 90 37
120 45 30 8 64 22 75 32 11 10 67 51 125 90 58 40 125 87 150 106 25 19 51 38
58 41 56 27 393 353 443 429 15 22 43 58 63 79 20 22 51 63 70 90 123 187 170
262 187 304 11 26 40 85 63 132 90 176 167 438 210 710 3 19 6 63 7 98 1 34 6
62 11 62 4 0 8 14 8 31 0 39 22 34 31 -7 6 -25 7 -26 9 -6 1 12 3 27 4 34 0 6
10 12 20 14 30 4 36 24 32 102 -2 39 -1 72 3 72 11 0 31 -71 31 -107 0 -16 7
-52 15 -79 13 -40 15 -91 11 -274 -5 -205 -9 -263 -31 -385 -6 -31 6 -14 55
80 35 66 66 122 69 125 3 3 15 23 26 45 10 22 32 56 47 76 15 20 28 39 28 41
0 3 14 29 31 59 l30 54 -4 -67 c-5 -73 1 -84 20 -40 42 94 63 311 57 597 -5
246 -5 244 -40 480 -27 182 -114 556 -144 620 -5 11 -16 43 -25 70 -9 28 -29
78 -46 113 -16 34 -29 66 -29 70 0 28 -206 401 -262 473 -15 20 -28 40 -28 43
0 3 -19 34 -42 67 -24 33 -47 68 -53 77 -5 10 -20 27 -32 40 -13 12 -23 33
-23 46 0 33 -20 126 -33 153 -8 18 -13 20 -24 11 -12 -9 -26 1 -76 54 -34 36
-82 78 -107 93 -25 15 -70 49 -100 75 -30 26 -86 68 -125 93 -38 26 -92 63
-120 82 -27 20 -58 41 -68 48 -11 7 -33 22 -50 35 -17 12 -36 22 -42 22 -6 0
-27 12 -46 26 -30 23 -311 164 -327 164 -3 0 -24 9 -46 19 -207 98 -739 245
-1161 322 -66 12 -145 28 -175 36 -104 27 -112 27 -148 -6z m413 -841 c66 -6
131 -13 145 -16 14 -2 84 -13 155 -23 72 -10 144 -24 160 -31 17 -6 89 -14
160 -17 150 -6 189 -19 248 -82 43 -46 91 -70 157 -77 80 -8 164 -33 179 -54
7 -11 19 -20 26 -20 7 0 16 -15 19 -34 4 -19 13 -37 21 -40 8 -3 15 -12 15
-20 0 -9 11 -23 25 -32 13 -9 27 -25 31 -37 4 -11 19 -35 35 -51 16 -17 27
-36 25 -43 -3 -6 2 -14 10 -17 8 -3 14 -15 14 -26 0 -12 4 -19 9 -15 5 3 16
-7 23 -22 22 -44 42 -76 58 -94 8 -10 31 -44 50 -76 19 -32 55 -87 81 -123 25
-36 49 -72 53 -80 4 -8 12 -24 19 -35 42 -69 113 -208 163 -320 31 -71 67
-146 80 -166 22 -36 54 -119 54 -143 0 -27 42 -145 56 -157 8 -6 14 -23 14
-38 0 -24 36 -68 51 -64 15 5 53 -126 74 -247 8 -48 20 -198 18 -235 0 -16 -1
-76 -2 -133 -1 -56 -5 -101 -9 -98 -4 2 -9 -13 -9 -34 -3 -66 -33 -342 -44
-405 -11 -62 -45 -166 -57 -175 -14 -10 -32 -51 -27 -60 6 -10 -32 -129 -46
-145 -5 -5 -9 -15 -9 -23 0 -7 -15 -44 -33 -80 -19 -37 -40 -85 -47 -106 -7
-22 -28 -60 -47 -85 -20 -25 -39 -54 -43 -66 -5 -11 -38 -60 -74 -109 -36 -49
-66 -97 -66 -108 0 -11 -4 -16 -10 -13 -16 10 -12 -7 8 -28 12 -15 13 -18 2
-12 -13 8 -13 6 -2 -7 11 -14 10 -21 -4 -45 -25 -40 -60 -73 -79 -73 -8 0 -15
-7 -15 -15 0 -8 -6 -16 -12 -16 -27 -3 -53 3 -63 13 -7 8 -5 8 5 3 12 -6 12
-5 3 5 -9 10 -15 10 -27 -3 -12 -12 -13 -17 -3 -20 6 -3 3 -6 -8 -6 -17 -1
-17 -3 -5 -11 13 -8 13 -10 1 -10 -11 0 -10 -3 3 -13 16 -12 16 -14 2 -26 -8
-7 -20 -10 -26 -6 -6 4 -9 1 -8 -6 2 -7 -7 -18 -19 -24 -24 -10 -32 -35 -12
-35 8 0 9 -4 0 -13 -6 -8 -7 -18 -3 -22 4 -5 2 -5 -5 -1 -7 4 -10 14 -7 24 5
14 3 14 -10 -2 -9 -11 -12 -22 -7 -26 6 -3 6 -11 1 -20 -5 -8 -12 -11 -16 -7
-4 4 -18 0 -30 -8 -25 -16 -38 -8 -23 15 5 8 9 11 9 7 0 -5 5 -5 10 -2 8 5 8
11 1 19 -8 9 -5 12 12 12 13 -1 22 5 22 14 0 19 30 50 48 50 21 0 28 12 16 26
-6 7 -8 18 -4 25 6 8 10 7 16 -2 7 -11 9 -10 9 4 0 24 -22 17 -35 -11 -5 -12
-15 -22 -21 -22 -6 0 -21 -11 -34 -25 -13 -14 -29 -25 -36 -25 -7 0 -26 -12
-41 -26 -15 -14 -22 -22 -14 -18 11 5 13 2 9 -14 -4 -13 1 -31 13 -45 16 -22
17 -26 3 -43 -14 -18 -15 -18 -13 6 2 38 -1 46 -10 31 -7 -11 -11 -9 -21 9 -7
12 -8 20 -2 16 5 -3 12 1 16 9 6 18 5 18 -29 5 -14 -5 -23 -14 -20 -20 3 -5 0
-7 -8 -4 -8 3 -20 -2 -27 -11 -7 -8 -17 -15 -23 -15 -6 0 -18 -6 -26 -14 -15
-12 -78 -49 -127 -73 -10 -5 -37 -19 -59 -31 -102 -53 -150 -73 -290 -119
-409 -137 -410 -137 -836 -123 -470 15 -627 28 -879 76 -200 39 -337 93 -455
179 -16 13 -64 42 -105 65 -41 23 -77 45 -80 50 -5 9 -128 100 -134 100 -9 0
-196 188 -196 198 0 5 -32 43 -71 84 -40 40 -89 95 -109 123 -20 27 -45 57
-55 65 -37 31 -219 285 -295 413 -19 31 -38 57 -43 57 -4 0 -13 14 -18 30 -6
17 -18 30 -26 30 -9 0 -12 6 -9 18 3 9 1 24 -4 32 -6 10 -10 11 -10 3 0 -29
-18 -9 -41 44 -13 31 -30 62 -37 70 -18 18 -5 38 14 22 25 -21 27 -2 6 63 -11
35 -23 77 -27 95 -3 18 -14 34 -23 36 -9 3 75 5 188 6 113 1 225 5 250 8 25 3
160 5 300 4 l255 -2 50 -34 c28 -18 68 -42 90 -54 22 -11 51 -29 65 -40 l25
-21 -197 0 c-125 0 -198 -4 -198 -10 0 -5 -13 -10 -30 -10 -16 0 -30 4 -30 8
0 8 -62 27 -122 38 -42 7 -50 -7 -23 -42 20 -26 19 -34 -6 -34 -12 0 -19 -5
-16 -12 4 -14 57 -14 135 -2 34 5 42 3 42 -9 0 -13 10 -15 52 -12 29 2 60 -1
70 -6 10 -6 19 -5 23 1 3 5 11 7 18 5 7 -2 37 -7 67 -10 81 -10 2220 -27 2460
-20 237 6 502 24 600 40 19 3 82 12 140 21 103 14 135 21 214 45 35 11 38 13
22 25 -13 9 -110 13 -416 14 -399 1 -487 5 -505 21 -5 5 52 9 140 10 83 0 166
2 185 4 19 2 94 9 165 16 72 6 137 15 145 19 8 4 60 11 114 15 136 10 166 14
301 40 39 7 93 16 120 20 88 10 128 20 128 30 -1 23 -131 76 -228 91 -16 3
-54 9 -84 14 -30 6 -80 10 -111 10 l-56 0 -13 49 c-17 67 -44 114 -94 165 -23
24 -60 62 -82 85 -22 22 -46 41 -52 41 -7 0 -13 4 -13 9 0 9 -50 75 -89 119
-30 32 -60 29 -67 -8 -6 -30 -23 -42 -25 -17 -1 27 -18 -30 -18 -65 -1 -21 -6
-38 -11 -38 -6 0 -9 3 -8 8 1 4 -1 23 -5 42 -6 27 -10 31 -17 20 -5 -9 -5 -19
2 -27 15 -19 6 -25 -47 -30 -36 -5 -45 -9 -45 -25 0 -16 -5 -19 -25 -14 -20 5
-25 3 -25 -14 0 -13 -7 -20 -20 -20 -28 0 -26 -32 6 -69 24 -29 27 -30 97 -26
40 2 126 5 192 6 115 2 122 1 146 -22 14 -13 31 -33 37 -44 10 -20 8 -21 -188
-20 -188 0 -232 -5 -201 -24 20 -13 338 -14 346 -1 10 16 58 11 83 -9 12 -11
22 -22 22 -25 0 -3 -94 -6 -208 -6 -122 0 -212 -4 -218 -10 -5 -5 -87 -13
-183 -16 -143 -6 -174 -5 -182 7 -5 8 -9 274 -9 600 l0 587 -37 53 c-20 30
-48 68 -62 84 -14 17 -35 49 -45 73 -10 23 -22 42 -26 42 -3 0 -14 -17 -23
-38 -23 -53 -59 -84 -152 -132 -44 -23 -84 -46 -90 -50 -5 -4 -30 -12 -55 -17
l-45 -9 -5 -599 c-3 -330 -6 -601 -8 -602 -1 -2 -40 -3 -87 -3 l-85 0 0 570
c0 560 0 570 -20 570 -15 0 -23 12 -35 52 -8 28 -15 64 -15 79 0 15 -8 37 -19
50 -18 22 -19 22 -114 11 -53 -7 -110 -12 -126 -12 l-31 0 0 283 c0 155 -4
297 -10 316 -23 82 -135 231 -174 231 -7 0 -23 9 -36 20 -13 11 -28 20 -35 20
-7 0 -27 7 -44 16 -21 11 -47 15 -71 11 -23 -3 -43 0 -51 8 -8 7 -40 15 -71
18 -68 7 -68 7 -68 -113 0 -58 -5 -97 -15 -116 -8 -16 -15 -52 -15 -81 0 -38
-5 -55 -17 -65 -17 -12 -18 -69 -20 -908 -1 -492 -4 -904 -7 -916 -7 -26 -47
-44 -111 -51 -45 -5 -55 -2 -83 22 l-32 27 6 716 6 717 -36 37 c-20 21 -66 61
-103 90 -38 28 -86 69 -109 90 -73 70 -171 107 -202 76 -8 -8 -12 -51 -12
-130 0 -107 -2 -118 -20 -128 -20 -11 -20 -21 -20 -760 l0 -750 -80 0 -80 0 0
255 c0 245 -1 255 -20 265 -13 7 -80 10 -183 8 l-162 -3 -3 32 c-6 57 -24 59
-263 37 -56 -5 -73 -2 -107 15 -54 27 -84 16 -113 -41 -21 -40 -23 -62 -30
-298 -4 -140 -8 -260 -8 -266 -1 -7 -15 -9 -38 -5 l-38 6 -3 155 c-2 85 2 207
9 270 6 63 13 122 13 130 1 9 5 20 8 25 3 6 8 39 12 75 7 65 12 86 61 280 48
188 153 457 236 604 83 149 126 219 146 241 10 11 44 56 74 100 90 128 282
316 464 453 129 97 148 109 375 232 112 61 399 168 530 197 36 8 97 21 135 29
39 9 79 18 90 20 11 3 74 9 140 15 66 5 125 12 130 14 17 7 325 -3 450 -15z
m-2618 -1262 c-16 -35 -35 -74 -43 -88 -87 -151 -213 -494 -250 -675 -47 -234
-56 -321 -57 -553 0 -174 -3 -222 -13 -218 -22 9 -38 -49 -26 -97 12 -43 24
-100 28 -127 1 -8 14 -51 29 -95 14 -44 33 -107 41 -141 7 -33 30 -88 50 -122
36 -60 53 -75 55 -49 1 6 5 -1 9 -18 28 -107 40 -146 54 -171 9 -16 32 -56 51
-89 19 -33 48 -85 64 -115 16 -30 57 -93 90 -140 33 -47 81 -115 106 -152 25
-37 90 -115 143 -173 53 -59 117 -130 142 -158 136 -155 498 -500 597 -568 47
-33 215 -119 230 -119 6 0 13 -31 17 -69 3 -38 13 -81 21 -97 8 -16 15 -37 15
-48 0 -15 -6 -12 -30 14 -31 33 -52 33 -43 0 3 -11 1 -20 -3 -20 -32 1 -121
34 -193 71 -46 24 -140 73 -210 109 -180 93 -258 137 -310 176 -25 19 -54 37
-63 40 -10 4 -18 14 -18 23 0 12 -2 13 -9 3 -6 -11 -14 -9 -34 10 -13 13 -39
36 -57 52 -25 22 -29 30 -19 37 12 7 11 9 -1 9 -23 1 -53 31 -75 75 -11 22
-24 42 -29 44 -4 2 -2 7 5 12 11 8 9 13 -10 29 -13 11 -21 23 -18 26 9 10 -30
80 -55 101 -13 10 -28 28 -33 40 -6 12 -31 44 -57 71 -26 27 -44 52 -41 56 4
3 -1 6 -10 6 -9 0 -19 11 -23 24 -3 14 -15 33 -26 43 -27 24 -158 209 -158
222 0 6 -3 11 -7 11 -5 0 -23 32 -42 70 -18 39 -37 70 -42 70 -5 0 -9 6 -9 14
0 13 -24 76 -66 174 -7 17 -10 32 -5 32 14 0 28 -23 36 -58 4 -18 27 -69 51
-113 24 -43 44 -83 44 -88 0 -4 9 -18 20 -31 11 -13 20 -29 20 -35 0 -7 7 -18
15 -25 8 -7 12 -16 9 -21 -3 -5 2 -12 10 -15 9 -3 13 -10 11 -15 -3 -4 3 -17
15 -29 11 -11 18 -20 16 -20 -3 0 8 -15 25 -32 16 -18 29 -37 29 -44 0 -6 12
-17 26 -24 22 -12 27 -12 36 0 8 12 9 12 4 -2 -3 -10 0 -18 6 -18 7 0 3 -7 -8
-15 -18 -14 -17 -15 7 -6 27 10 49 -1 49 -23 0 -6 -4 -5 -9 3 -6 9 -11 10 -15
2 -7 -11 -4 -12 32 -15 9 -1 24 -5 32 -11 13 -8 13 -7 1 8 -7 9 -18 14 -24 10
-6 -4 -8 0 -4 10 4 10 -2 23 -17 34 -24 20 -178 224 -215 288 -13 22 -37 65
-54 95 -16 30 -35 62 -42 70 -7 8 -25 38 -39 65 -14 28 -45 79 -67 115 -59 92
-147 320 -98 250 9 -12 10 -12 5 3 -11 34 -18 268 -8 280 12 14 21 138 11 131
-5 -2 -5 24 -2 59 4 47 2 67 -8 72 -9 6 -11 4 -6 -8 3 -10 2 -17 -3 -17 -12 0
-13 23 -2 34 13 13 10 94 -4 89 -13 -5 -25 87 -21 157 1 19 -2 46 -6 60 -7 20
-6 22 3 10 10 -12 10 -11 3 5 -10 25 -11 282 -1 355 12 82 14 89 42 163 14 37
26 69 26 72 1 2 10 24 20 47 11 24 20 50 20 59 0 24 41 143 56 159 7 8 20 35
30 60 9 25 26 55 37 68 11 12 16 22 11 22 -5 0 -3 4 5 9 8 5 16 22 19 38 2 15
12 36 22 45 10 10 32 37 49 60 16 24 41 54 55 67 14 12 24 27 21 32 -8 13 32
49 55 49 11 0 20 5 20 11 0 5 4 8 8 5 5 -3 -4 -34 -21 -68z m-800 -190 c-3 -8
-6 -5 -6 6 -1 11 2 17 5 13 3 -3 4 -12 1 -19z m4513 -1073 c0 -8 -4 -15 -10
-15 -5 0 -7 7 -4 15 4 8 8 15 10 15 2 0 4 -7 4 -15z m375 -328 c-38 -4 -90 -6
-115 -5 -31 2 -13 6 60 13 58 6 110 8 115 6 6 -3 -21 -9 -60 -14z m105 3 c0
-5 -4 -10 -9 -10 -6 0 -13 5 -16 10 -3 6 1 10 9 10 9 0 16 -4 16 -10z m-130
-70 c-41 -4 -115 -7 -165 -7 -84 0 -86 1 -30 7 33 4 107 7 165 7 105 0 105 0
30 -7z m-275 -19 c-12 -11 -187 -19 -177 -9 4 4 43 9 87 11 44 1 84 4 90 5 6
1 6 -1 0 -7z m-4359 -78 c-11 -11 -17 4 -9 23 7 18 8 18 11 1 2 -10 1 -21 -2
-24z m274 -99 c0 -14 -3 -14 -15 -4 -8 7 -15 14 -15 16 0 2 7 4 15 4 8 0 15
-7 15 -16z m1460 -34 c12 -8 9 -10 -12 -10 -16 0 -28 5 -28 10 0 13 20 13 40
0z m3032 -1147 c-6 -2 -10 -9 -7 -14 4 -5 -1 -6 -9 -3 -20 8 -11 24 12 23 11
0 12 -2 4 -6z m-235 -138 c0 -8 -4 -15 -9 -15 -4 0 -8 7 -8 15 0 8 4 15 8 15
5 0 9 -7 9 -15z m53 -58 c0 -2 -10 -12 -22 -23 l-23 -19 19 23 c18 21 26 27
26 19z m-3860 -78 c0 -6 -4 -7 -10 -4 -5 3 -10 11 -10 16 0 6 5 7 10 4 6 -3
10 -11 10 -16z m3490 -207 c0 -5 -18 -18 -40 -31 -22 -12 -40 -18 -40 -12 0 6
11 13 25 17 13 3 29 12 36 20 13 16 19 18 19 6z m-310 -207 c0 -2 -10 -9 -22
-15 -22 -11 -22 -10 -4 4 21 17 26 19 26 11z m-1885 -423 c-21 -5 -40 12 -30
28 5 8 13 6 27 -7 18 -16 19 -18 3 -21z m52 6 c-3 -8 -6 -5 -6 6 -1 11 2 17 5
13 3 -3 4 -12 1 -19z m-31 -84 c-6 -23 -26 -34 -26 -14 0 5 -14 13 -32 18 -41
10 -51 34 -11 26 20 -4 33 -1 43 11 12 15 14 15 23 0 5 -9 6 -27 3 -41z m74
11 c0 -13 -5 -27 -11 -30 -16 -11 -22 1 -11 22 8 13 6 23 -6 37 -16 18 -16 18
6 7 13 -7 22 -21 22 -36z m-90 -60 c0 -2 -19 -2 -42 -1 -31 2 -44 7 -46 19 -3
15 0 15 42 1 25 -9 46 -17 46 -19z m0 -35 c9 -17 7 -26 -10 -47 -30 -39 -90
-40 -90 -2 0 15 7 19 38 19 33 1 35 2 20 14 -24 17 -23 24 5 29 12 2 23 5 24
6 1 0 7 -8 13 -19z m-220 -80 c0 -5 -4 -10 -10 -10 -5 0 -10 5 -10 10 0 6 5
10 10 10 6 0 10 -4 10 -10z m241 -33 c-8 -8 -11 -7 -11 4 0 20 13 34 18 19 3
-7 -1 -17 -7 -23z m-55 6 c-2 -10 -8 -45 -11 -78 l-8 -60 -18 43 c-18 43 -18
43 4 77 24 37 41 46 33 18z"/>
<path d="M2794 4985 c0 -99 2 -138 3 -87 2 51 2 132 0 180 -1 48 -3 6 -3 -93z"/>
<path d="M2784 4605 c0 -60 1 -84 3 -52 2 32 2 81 0 110 -2 29 -3 3 -3 -58z"/>
<path d="M5071 3834 c0 -11 3 -14 6 -6 3 7 2 16 -1 19 -3 4 -6 -2 -5 -13z"/>
<path d="M6103 3675 c-3 -9 -3 -18 -1 -21 3 -3 8 4 11 16 6 23 -1 27 -10 5z"/>
<path d="M4980 3531 c-151 -9 -78 -22 116 -21 95 1 178 -1 184 -5 14 -9 13 8
-2 23 -13 13 -114 13 -298 3z"/>
<path d="M2792 3400 c0 -14 2 -19 5 -12 2 6 2 18 0 25 -3 6 -5 1 -5 -13z"/>
<path d="M6033 3271 c-3 -13 -11 -20 -19 -17 -16 6 -30 -70 -20 -109 9 -35 36
-33 36 3 0 15 4 32 9 38 12 12 18 91 8 101 -4 4 -10 -3 -14 -16z"/>
<path d="M1615 2890 c7 -21 6 -21 -60 -24 -13 -1 -20 -8 -20 -21 0 -16 6 -20
33 -17 17 1 32 -2 32 -8 0 -5 -6 -10 -12 -10 -9 0 -10 -2 -2 -8 6 -4 15 -18
19 -31 10 -33 36 -61 58 -61 14 0 17 -5 12 -20 -4 -13 -2 -20 7 -20 16 0 47
19 33 20 -5 0 -1 6 9 12 15 8 21 7 28 -6 9 -16 34 -18 276 -19 34 0 51 -4 49
-11 -4 -12 -128 -13 -146 -1 -6 3 -19 4 -29 1 -10 -3 -37 -7 -60 -8 -24 -1
-45 -5 -48 -10 -3 -4 46 -8 108 -8 107 0 206 -10 326 -32 l52 -9 -42 -40 c-24
-22 -55 -43 -70 -46 -15 -3 -35 -14 -44 -24 -9 -11 -25 -19 -35 -19 -17 0 -18
-7 -12 -82 3 -46 10 -88 15 -95 5 -7 31 -15 56 -18 26 -3 74 -11 107 -17 89
-16 2522 -17 2544 -1 14 11 14 13 1 27 -18 18 -75 30 -265 56 -142 20 -259 38
-394 61 -100 17 -72 25 124 33 269 13 344 21 405 48 53 24 68 25 345 32 181 5
295 12 303 19 7 5 12 20 10 31 -3 18 -12 22 -71 27 -69 6 -96 21 -76 45 5 7
63 14 147 17 235 11 343 24 387 47 l40 21 -97 -5 c-54 -2 -100 0 -103 5 -3 5
0 19 7 31 7 13 11 26 10 31 -2 7 13 11 31 8 4 0 7 3 7 8 0 4 -28 11 -61 15
-34 3 -67 10 -73 15 -23 18 -192 22 -566 12 -212 -6 -1007 -11 -1767 -11
-1382 -1 -1383 -1 -1405 19 -12 12 -27 21 -34 21 -6 0 -17 7 -24 15 -7 9 -19
14 -26 11 -7 -3 -16 -1 -19 4 -11 18 -26 10 -20 -10z"/>
<path d="M2906 2143 c-111 -2 -185 -8 -193 -14 -7 -7 -13 -7 -13 -2 0 5 -13 8
-30 5 -27 -4 -44 -22 -21 -22 5 0 13 -10 17 -22 16 -52 20 -53 283 -55 135 -1
301 -5 368 -9 111 -5 121 -8 120 -25 -1 -16 -10 -19 -52 -20 -27 -1 -75 -4
-105 -8 -52 -6 -50 -7 52 -15 60 -4 105 -12 102 -17 -3 -5 -52 -9 -110 -9
-114 0 -120 -3 -106 -55 l8 -30 415 3 c479 4 450 -2 457 101 l4 60 42 5 c22 3
96 9 162 14 67 5 127 13 133 16 17 11 13 72 -6 87 -13 12 -133 14 -682 15
-366 0 -747 -1 -845 -3z"/>
<path d="M5490 1939 c0 -5 5 -7 10 -4 6 3 10 8 10 11 0 2 -4 4 -10 4 -5 0 -10
-5 -10 -11z"/>
<path d="M992 4450 c-33 -50 -39 -66 -23 -55 11 6 63 97 58 101 -1 2 -17 -19
-35 -46z"/>
<path d="M812 3750 c0 -14 2 -19 5 -12 2 6 2 18 0 25 -3 6 -5 1 -5 -13z"/>
<path d="M623 5090 c-11 -55 -17 -100 -13 -100 4 0 10 19 14 43 3 23 12 68 20
100 8 31 11 57 7 57 -5 0 -17 -45 -28 -100z"/>
<path d="M501 4934 c0 -11 3 -14 6 -6 3 7 2 16 -1 19 -3 4 -6 -2 -5 -13z"/>
<path d="M2958 719 c7 -8 41 -17 75 -20 34 -4 82 -10 107 -14 25 -4 42 -4 37
1 -4 4 -18 9 -30 11 -12 1 -40 7 -62 12 -22 6 -62 13 -90 16 -41 6 -48 4 -37
-6z"/>
<path d="M3120 595 c0 -8 5 -15 10 -15 6 0 10 7 10 15 0 8 -4 15 -10 15 -5 0
-10 -7 -10 -15z"/>
<path d="M2930 510 c0 -5 6 -10 14 -10 8 0 18 5 21 10 3 6 -3 10 -14 10 -12 0
-21 -4 -21 -10z"/>
<path d="M3145 510 c-10 -16 35 -25 165 -35 41 -3 89 -8 105 -10 63 -10 391
-15 420 -7 22 6 -22 12 -160 21 -104 8 -203 15 -220 17 -222 24 -301 28 -310
14z"/>
<path d="M2561 434 c0 -11 3 -14 6 -6 3 7 2 16 -1 19 -3 4 -6 -2 -5 -13z"/>
<path d="M2600 392 c0 -12 19 -26 26 -19 2 2 -2 10 -11 17 -9 8 -15 8 -15 2z"/>
</g>
</svg>
